name C:\Users\u0101727\Documents\MyRepositories\upper-imu-dc\Results\main_tracking\Case_31\FLX01_angularVelocities_bodyFrame.mot
datacolumns 4
datarows 82
range 3.51000000 4.32000000
endheader 
time	radius_imu_x	radius_imu_y	radius_imu_z	
          3.51000000	          0.01689602	          0.27586246	          0.10190973	
          3.52000000	          0.03011668	          0.21125249	          0.09956961	
          3.53000000	          0.04238904	          0.14539739	          0.09590196	
          3.54000000	          0.05346387	          0.08136768	          0.09121434	
          3.55000000	          0.06315617	          0.02254624	          0.08588316	
          3.56000000	          0.07138342	         -0.02853652	          0.08030596	
          3.57000000	          0.07818966	         -0.07109368	          0.07483733	
          3.58000000	          0.08371101	         -0.10618274	          0.06971658	
          3.59000000	          0.08810591	         -0.13609927	          0.06501984	
          3.60000000	          0.09150944	         -0.16352142	          0.06066815	
          3.61000000	          0.09403026	         -0.19074858	          0.05648680	
          3.62000000	          0.09575279	         -0.21891926	          0.05228150	
          3.63000000	          0.09670158	         -0.24715054	          0.04789164	
          3.64000000	          0.09678844	         -0.27199851	          0.04321277	
          3.65000000	          0.09579831	         -0.28772146	          0.03820674	
          3.66000000	          0.09343636	         -0.28735978	          0.03291548	
          3.67000000	          0.08942377	         -0.26430429	          0.02748459	
          3.68000000	          0.08363235	         -0.21411806	          0.02219887	
          3.69000000	          0.07625538	         -0.13652271	          0.01752818	
          3.70000000	          0.06797415	         -0.03713588	          0.01416490	
          3.71000000	          0.05999732	          0.07226067	          0.01300373	
          3.72000000	          0.05385699	          0.17606924	          0.01502008	
          3.73000000	          0.05101157	          0.25920709	          0.02106953	
          3.74000000	          0.05244174	          0.31138209	          0.03168566	
          3.75000000	          0.05839290	          0.32970243	          0.04694961	
          3.76000000	          0.06832086	          0.31904009	          0.06647008	
          3.77000000	          0.08103225	          0.29031720	          0.08947573	
          3.78000000	          0.09496932	          0.25738744	          0.11498636	
          3.79000000	          0.10855583	          0.23337076	          0.14201364	
          3.80000000	          0.12052604	          0.22734694	          0.16974246	
          3.81000000	          0.13016159	          0.24223918	          0.19765014	
          3.82000000	          0.13737756	          0.27445044	          0.22554281	
          3.83000000	          0.14264208	          0.31527238	          0.25351179	
          3.84000000	          0.14676152	          0.35349709	          0.28182986	
          3.85000000	          0.15060457	          0.37838237	          0.31082176	
          3.86000000	          0.15484979	          0.38217189	          0.34074723	
          3.87000000	          0.15982310	          0.36161332	          0.37172466	
          3.88000000	          0.16545454	          0.31825250	          0.40370502	
          3.89000000	          0.17134587	          0.25764015	          0.43648931	
          3.90000000	          0.17691531	          0.18783833	          0.46977654	
          3.91000000	          0.18157182	          0.11766371	          0.50322764	
          3.92000000	          0.18486713	          0.05501793	          0.53652840	
          3.93000000	          0.18658615	          0.00554253	          0.56943751	
          3.94000000	          0.18676696	         -0.02824502	          0.60181757	
          3.95000000	          0.18566957	         -0.04720340	          0.63365622	
          3.96000000	          0.18372019	         -0.05511020	          0.66508118	
          3.97000000	          0.18145238	         -0.05755006	          0.69636446	
          3.98000000	          0.17945643	         -0.06045003	          0.72790816	
          3.99000000	          0.17834280	         -0.06870956	          0.76021080	
          4.00000000	          0.17871583	         -0.08529370	          0.79381745	
          4.01000000	          0.18114571	         -0.11093311	          0.82925557	
          4.02000000	          0.18612648	         -0.14434375	          0.86695825	
          4.03000000	          0.19402015	         -0.18274216	          0.90718271	
          4.04000000	          0.20500376	         -0.22243985	          0.94994116	
          4.05000000	          0.21904422	         -0.25945928	          0.99496087	
          4.06000000	          0.23591486	         -0.29027528	          1.04168035	
          4.07000000	          0.25524932	         -0.31275319	          1.08927951	
          4.08000000	          0.27662119	         -0.32713233	          1.13673962	
          4.09000000	          0.29964109	         -0.33669481	          1.18292922	
          4.10000000	          0.32405474	         -0.34778519	          1.22670406	
          4.11000000	          0.34983023	         -0.36902343	          1.26701299	
          4.12000000	          0.37720829	         -0.40987384	          1.30298982	
          4.13000000	          0.40667016	         -0.47891299	          1.33399515	
          4.14000000	          0.43881606	         -0.58193479	          1.35960243	
          4.15000000	          0.47415994	         -0.72007650	          1.37953425	
          4.16000000	          0.51287624	         -0.88828640	          1.39357141	
          4.17000000	          0.55457140	         -1.07450637	          1.40147596	
          4.18000000	          0.59814921	         -1.25998480	          1.40296035	
          4.19000000	          0.64182242	         -1.42096565	          1.39772292	
          4.20000000	          0.68328788	         -1.53167029	          1.38554669	
          4.21000000	          0.72004723	         -1.56824926	          1.36643939	
          4.22000000	          0.74984528	         -1.51341771	          1.34079236	
          4.23000000	          0.77119839	         -1.36142756	          1.30954251	
          4.24000000	          0.78391944	         -1.12225478	          1.27429136	
          4.25000000	          0.78941301	         -0.82261669	          1.23728194	
          4.26000000	          0.79050702	         -0.50175101	          1.20115327	
          4.27000000	          0.79084153	         -0.20300537	          1.16852093	
          4.28000000	          0.79410900	          0.03486141	          1.14154524	
          4.29000000	          0.80343479	          0.18343736	          1.12162505	
          4.30000000	          0.82099433	          0.22700037	          1.10925564	
          4.31000000	          0.84782332	          0.16277058	          1.10402191	
          4.32000000	          0.88374465	          0.00054614	          1.10468701	
